<svg xmlns="http://www.w3.org/2000/svg" width="1246.667" height="1246.667" version="1.0" viewBox="0 0 935 935"><path d="M282 425.4v378.7l-3.7-2.8c-21-15.5-46.3-39.6-61-57.8C178.4 695 155 639.3 147.4 577c-2.2-18.1-2.2-53.9 0-72 8.3-67.9 35.1-127.5 80.3-178.6l6.3-7.2-.2-23.8-.3-23.9-18 18c-24.4 24.3-38.3 41.9-54.8 69.5-25.6 42.8-41.2 89.2-47.9 142-1.8 14.1-1.8 65.9 0 80 8.8 69.8 33.4 128.8 76.3 183 10.6 13.5 41.4 44.3 54.9 54.9 56.7 44.9 120.9 70.6 192.5 77.1 14.1 1.3 46.9 1.3 61 0 71.6-6.5 135.8-32.2 192.5-77.1 13.5-10.6 44.3-41.4 54.9-54.9 42.9-54.2 67.5-113.2 76.3-183 .8-6.6 1.3-21.4 1.3-40s-.5-33.4-1.3-40c-6.7-52.8-22.3-99.2-47.9-142-16.5-27.6-30.4-45.2-54.8-69.5l-18-18-.3 23.9-.2 23.8 6.3 7.2c38.9 44 64.4 94.7 75.7 150.6 4.7 23.3 6.3 38.9 6.3 64s-1.6 40.7-6.3 64c-10.2 50.4-32.3 97.3-65.3 138.5-14.7 18.2-40 42.3-60.9 57.8l-3.8 2.8V668.3l-.1-135.8-6.7-5.9c-6.5-5.8-23-20.7-67.4-60.9L556 446v403.9l-5.2 1.6c-4.8 1.4-23.3 5.4-32 6.9l-3.8.7V330.4l-24.7-23.1c-13.7-12.7-25.9-24.1-27.3-25.4-13.2-12.2-30.8-28.6-36.5-34.1l-7-6.7-.3 309-.2 309-3.8-.7c-8.7-1.5-27.2-5.5-32-6.9l-5.2-1.6V136.2l-21.7-20.4c-12-11.1-32.6-30.4-45.8-42.8s-25-23.4-26.3-24.4l-2.2-1.9z"/></svg>