<?xml version="1.0" standalone="no"?>
<!DOCTYPE svg PUBLIC "-//W3C//DTD SVG 20010904//EN"
 "http://www.w3.org/TR/2001/REC-SVG-20010904/DTD/svg10.dtd">
<svg version="1.0" xmlns="http://www.w3.org/2000/svg"
 width="935.000000pt" height="935.000000pt" viewBox="0 0 935.000000 935.000000"
 preserveAspectRatio="xMidYMid meet">
<metadata>
Created by potrace 1.14, written by Peter Selinger 2001-2017
</metadata>
<g transform="translate(0.000000,935.000000) scale(0.100000,-0.100000)"
fill="#000000" stroke="none">
<path d="M2820 5096 l0 -3787 -37 28 c-210 155 -463 396 -610 578 -389 485
-623 1042 -699 1665 -22 181 -22 539 0 720 83 679 351 1275 803 1786 l63 72
-2 238 -3 239 -180 -180 c-244 -243 -383 -419 -548 -695 -256 -428 -412 -892
-479 -1420 -18 -141 -18 -659 0 -800 88 -698 334 -1288 763 -1830 106 -135
414 -443 549 -549 567 -449 1209 -706 1925 -771 141 -13 469 -13 610 0 716 65
1358 322 1925 771 135 106 443 414 549 549 429 542 675 1132 763 1830 8 66 13
214 13 400 0 186 -5 334 -13 400 -67 528 -223 992 -479 1420 -165 276 -304
452 -548 695 l-180 180 -3 -239 -2 -238 63 -72 c389 -440 644 -947 757 -1506
47 -233 63 -389 63 -640 0 -251 -16 -407 -63 -640 -102 -504 -323 -973 -653
-1385 -147 -182 -400 -423 -609 -578 l-38 -28 0 1358 -1 1358 -67 59 c-65 58
-230 207 -674 609 l-218 197 0 -2019 0 -2020 -52 -16 c-48 -14 -233 -54 -320
-69 l-38 -7 0 2644 0 2643 -247 231 c-137 127 -259 241 -273 254 -132 122
-308 286 -365 341 l-70 67 -3 -3090 -2 -3090 -38 7 c-87 15 -272 55 -320 69
l-52 16 0 3569 0 3568 -217 204 c-120 111 -326 304 -458 428 -132 124 -250
234 -263 244 l-22 19 0 -3787z"/>
</g>
</svg>
